<?xml version="1.0" standalone="no"?><!DOCTYPE svg PUBLIC "-//W3C//DTD SVG 1.1//EN" "http://www.w3.org/Graphics/SVG/1.1/DTD/svg11.dtd"><svg t="1697790493680" class="icon" viewBox="0 0 1024 1024" version="1.1" xmlns="http://www.w3.org/2000/svg" p-id="2046" xmlns:xlink="http://www.w3.org/1999/xlink" width="64" height="64"><path d="M379.4944 77.8752c15.9744 50.944 44.544 183.7056-58.9824 261.2224-6.5536 4.9152-15.7184 3.5328-21.0944-2.6624-33.6896-38.8096-92.0576-56.064-123.5456-62.8736-10.3936-2.2528-19.8144 6.5024-18.432 16.9984 5.3248 41.5744 11.8272 135.2192-27.2384 188.416-51.2512 69.7344-138.4448 513.2288 406.8352 477.8496 518.4-33.5872 427.8272-516.3008 290.9696-686.5408-7.936-9.8816-23.8592-6.4-26.88 5.888-9.6256 39.2704-29.5424 79.2064-54.3232 104.1408-9.2672 9.3184-25.0368 2.8672-25.9584-10.1888-8.704-121.1392-89.9584-298.6496-325.7344-312.2688-10.8544-0.5632-18.8416 9.7792-15.616 20.0192z" fill="#F4566C" p-id="2047"></path><path d="M900.7616 405.9648c-19.2512-53.8112-45.056-101.12-72.8064-135.6288-7.936-9.8816-23.8592-6.4-26.88 5.888-9.6256 39.2704-29.5424 79.2064-54.3232 104.1408-9.2672 9.3184-25.0368 2.8672-25.9584-10.1888-8.704-121.1392-89.9584-298.6496-325.7344-312.2688-10.7008-0.6144-18.688 9.728-15.5136 19.968 15.9744 50.944 44.544 183.7056-58.9824 261.2224-6.5536 4.9152-15.7184 3.5328-21.0944-2.6624-33.7408-38.8096-92.1088-56.064-123.5968-62.8736-10.3936-2.2528-19.8144 6.5024-18.432 16.9984 5.3248 41.5744 11.8272 135.2192-27.2384 188.416-33.9968 46.2336-83.6608 256.6144 45.4656 382.976 29.7984 6.2976 60.416 10.5984 91.7504 12.4416 301.4144 17.92 564.9408-184.7808 633.344-468.4288z" fill="#F56677" p-id="2048"></path><path d="M720.4352 366.848c-9.8816-121.0368-91.7504-295.4752-325.4272-308.9408-10.7008-0.6144-18.688 9.728-15.5136 19.968 15.9744 50.944 44.544 183.7056-58.9824 261.2224-6.5536 4.9152-15.7184 3.5328-21.0944-2.6624-33.6896-38.8096-92.0576-56.064-123.5456-62.8736-10.3936-2.2528-19.8144 6.5024-18.432 16.9984 5.3248 41.5744 11.8272 135.2192-27.2384 188.416-22.784 30.976-52.5824 135.7312-30.9248 239.4624 9.216 0.9728 18.4832 1.792 27.8528 2.3552 258.9696 15.36 490.0352-132.1472 593.3056-353.9456z" fill="#F67C85" p-id="2049"></path><path d="M103.5264 545.5872c230.6048-33.1264 421.888-197.7856 489.9328-419.3792-48.6912-37.1712-113.4592-63.3856-198.4512-68.3008-10.7008-0.6144-18.688 9.728-15.5136 19.968 15.9744 50.944 44.544 183.7056-58.9824 261.2224-6.5536 4.9152-15.7184 3.5328-21.0944-2.6624-33.6896-38.8096-92.0576-56.064-123.5456-62.8736-10.3936-2.2528-19.8144 6.5024-18.432 16.9984 5.3248 41.5744 11.8272 135.2192-27.2384 188.416-9.0112 12.2368-19.0976 35.9936-26.6752 66.6112z" fill="#F78B90" p-id="2050"></path><path d="M266.1888 815.872c-7.2192 0-14.4896-2.6112-20.2752-7.8848-111.9744-102.9632-53.4528-271.5648-50.944-278.7328 5.5808-15.5648 22.6816-23.7056 38.2464-18.1248a29.88544 29.88544 0 0 1 18.1248 38.1952c-0.512 1.3824-47.5648 138.5984 35.0208 214.5792a29.94176 29.94176 0 0 1 1.792 42.2912 29.6448 29.6448 0 0 1-21.9648 9.6768z" fill="#FFFFFF" p-id="2051"></path></svg>