<?xml version="1.0" standalone="no"?><!DOCTYPE svg PUBLIC "-//W3C//DTD SVG 1.1//EN" "http://www.w3.org/Graphics/SVG/1.1/DTD/svg11.dtd"><svg t="1697790560967" class="icon" viewBox="0 0 1239 1024" version="1.1" xmlns="http://www.w3.org/2000/svg" p-id="1079" xmlns:xlink="http://www.w3.org/1999/xlink" width="77.4375" height="64"><path d="M0 854.518932m50.095726 0l1055.863773 0q50.095726 0 50.095726 50.095727l0 0.481689q0 50.095726-50.095726 50.095727l-1055.863773 0q-50.095726 0-50.095726-50.095727l0-0.481689q0-50.095726 50.095726-50.095727Z" fill="#80C6FF" p-id="1080"></path><path d="M218.687113 0.001445h337.182774a93.929487 93.929487 0 0 1 94.411177 93.929487v861.261143H124.757626V93.930932A93.929487 93.929487 0 0 1 218.687113 0.001445zM729.759861 240.846284h205.681492a96.337935 96.337935 0 0 1 96.337935 96.337935v568.393819h-302.019427V240.846284z" fill="#80C6FF" p-id="1081"></path><path d="M505.774161 300.575804H275.526495a24.566174 24.566174 0 0 1-24.084484-24.084484 24.084484 24.084484 0 0 1 24.084484-24.084484h230.247666a24.084484 24.084484 0 0 1 24.084484 24.084484 24.084484 24.084484 0 0 1-24.084484 24.084484zM505.774161 425.81512H275.526495a24.084484 24.084484 0 0 1-24.084484-24.084484 24.566174 24.566174 0 0 1 24.084484-24.084484h230.247666a24.084484 24.084484 0 0 1 24.084484 24.084484 24.084484 24.084484 0 0 1-24.084484 24.084484zM505.774161 551.536125H275.526495a24.084484 24.084484 0 0 1-24.084484-24.084484 24.566174 24.566174 0 0 1 24.084484-24.084483h230.247666a24.084484 24.084484 0 0 1 24.084484 24.084483 24.084484 24.084484 0 0 1-24.084484 24.084484z" fill="#D2EFFF" p-id="1082"></path></svg>