<?xml version="1.0" standalone="no"?><!DOCTYPE svg PUBLIC "-//W3C//DTD SVG 1.1//EN" "http://www.w3.org/Graphics/SVG/1.1/DTD/svg11.dtd"><svg t="1697790511975" class="icon" viewBox="0 0 1024 1024" version="1.1" xmlns="http://www.w3.org/2000/svg" p-id="1382" xmlns:xlink="http://www.w3.org/1999/xlink" width="64" height="64"><path d="M729.6 179.2a76.8 76.8 0 0 1 76.8 76.8v665.6a76.8 76.8 0 0 1-76.8 76.8H140.8a76.8 76.8 0 0 1-76.8-76.8V256a76.8 76.8 0 0 1 76.8-76.8h588.8zM883.2 25.6a76.8 76.8 0 0 1 76.8 76.8v691.2a51.2 51.2 0 0 1-51.2 51.2h-38.4V140.8a25.6 25.6 0 0 0-25.6-25.6H179.2V76.8a51.2 51.2 0 0 1 51.2-51.2h652.8zM588.8 742.4H281.6l-2.2528 0.064a38.4 38.4 0 0 0 0 76.672L281.6 819.2h307.2l2.2528-0.064a38.4 38.4 0 0 0 0-76.672L588.8 742.4z m0-384H281.6l-2.2528 0.064a38.4 38.4 0 0 0 0 76.672L281.6 435.2h307.2l2.2528-0.064a38.4 38.4 0 0 0 0-76.672L588.8 358.4z" fill="#6B57FE" p-id="1383"></path><path d="M460.8 550.4a38.4 38.4 0 0 1 2.2528 76.736L460.8 627.2H281.6a38.4 38.4 0 0 1-2.2528-76.736L281.6 550.4h179.2z" fill="#FFBA00" p-id="1384"></path></svg>