<?xml version="1.0" standalone="no"?><!DOCTYPE svg PUBLIC "-//W3C//DTD SVG 1.1//EN" "http://www.w3.org/Graphics/SVG/1.1/DTD/svg11.dtd"><svg t="1697790582112" class="icon" viewBox="0 0 1024 1024" version="1.1" xmlns="http://www.w3.org/2000/svg" p-id="1396" xmlns:xlink="http://www.w3.org/1999/xlink" width="64" height="64"><path d="M815.476364 116.363636h-56.785455v53.527273a67.956364 67.956364 0 1 1-135.447273 0V116.363636H426.356364v53.527273a67.956364 67.956364 0 0 1-135.912728 0V116.363636H208.989091A196.421818 196.421818 0 0 0 13.032727 312.32v515.723636A196.421818 196.421818 0 0 0 208.989091 1024h605.090909a196.421818 196.421818 0 0 0 195.956364-195.956364V312.32a196.421818 196.421818 0 0 0-194.56-195.956364z" fill="#56E4FC" p-id="1397"></path><path d="M13.032727 348.625455h997.934546v55.38909H13.032727z" fill="#BEFCFC" p-id="1398"></path><path d="M330.007273 0m26.996363 0l2.792728 0q26.996364 0 26.996363 26.996364l0 143.825454q0 26.996364-26.996363 26.996364l-2.792728 0q-26.996364 0-26.996363-26.996364l0-143.825454q0-26.996364 26.996363-26.996364Z" fill="#28D2F9" p-id="1399"></path><path d="M330.007273 0m26.996363 0l2.792728 0q26.996364 0 26.996363 26.996364l0 143.825454q0 26.996364-26.996363 26.996364l-2.792728 0q-26.996364 0-26.996363-26.996364l0-143.825454q0-26.996364 26.996363-26.996364Z" fill="#0DD8F9" p-id="1400"></path><path d="M662.341818 0m26.996364 0l2.792727 0q26.996364 0 26.996364 26.996364l0 143.825454q0 26.996364-26.996364 26.996364l-2.792727 0q-26.996364 0-26.996364-26.996364l0-143.825454q0-26.996364 26.996364-26.996364Z" fill="#28D2F9" p-id="1401"></path><path d="M662.341818 0m26.996364 0l2.792727 0q26.996364 0 26.996364 26.996364l0 143.825454q0 26.996364-26.996364 26.996364l-2.792727 0q-26.996364 0-26.996364-26.996364l0-143.825454q0-26.996364 26.996364-26.996364Z" fill="#0DD8F9" p-id="1402"></path><path d="M522.705455 847.592727a27.461818 27.461818 0 0 1-19.549091-8.378182l-148.945455-148.945454a27.927273 27.927273 0 1 1 39.098182-39.563636l129.396364 129.861818 219.22909-219.229091a28.392727 28.392727 0 0 1 39.563637 0 27.927273 27.927273 0 0 1 0 39.098182l-236.916364 238.778181a26.065455 26.065455 0 0 1-21.876363 8.378182z" fill="#BEFCFC" p-id="1403"></path></svg>