<?xml version="1.0" standalone="no"?><!DOCTYPE svg PUBLIC "-//W3C//DTD SVG 1.1//EN" "http://www.w3.org/Graphics/SVG/1.1/DTD/svg11.dtd"><svg t="1713885429398" class="icon" viewBox="0 0 1344 1024" version="1.1" xmlns="http://www.w3.org/2000/svg" p-id="9812" width="336" height="256" xmlns:xlink="http://www.w3.org/1999/xlink"><path d="M122.816 489.1008c-18.9568 0-35.7632 22.2464-35.7632 44.4928s21.5424 42.3552 59.0336 42.3552c13.7856 0 29.312 23.9616 29.312 43.648 0 19.6736-17.2416 46.1952-34.9184 46.1952H54.2976C16.3712 665.792 0 684.608 0 708.992S10.3424 755.2 54.7328 755.2h424.4608l-117.632-266.0992H122.8032z m1088.5376 121.9328c12.4928 0 23.7056-14.5536 23.7056-29.5296 0-14.5408-14.2208-27.8016-39.2192-27.8016-9.0496 0-19.392-15.8336-19.392-29.0944s11.6352-30.3744 23.2704-30.3744h56.8832c25.4208 0 36.1984-12.4032 36.1984-28.6592S1285.9008 435.2 1256.6016 435.2H990.72l6.8864 175.8336h213.7472zM537.7024 1024H305.8432c-5.2352 0-9.152-3.1104-9.152-7.2704 0-4.1472 3.9168-7.2576 9.152-7.2576h231.8592c5.2352 0 9.152 3.1104 9.152 7.2576 0 3.8144-3.9168 7.2704-9.152 7.2704z m-208.768-36.672H112.768c-5.2352 0-9.152-3.1104-9.152-7.2576 0-4.16 3.9168-7.2704 9.152-7.2704h215.7312c5.248 0 9.1648 3.1104 9.1648 7.2704 0.4352 4.1472-3.9296 7.2576-8.7168 7.2576zM250.496 1024h-31.8208c-5.2352 0-9.152-3.1104-9.152-7.2704 0-4.1472 3.9168-7.2576 9.152-7.2576h32.256c5.2224 0 9.152 3.1104 9.152 7.2576-0.4352 3.8144-4.352 7.2704-9.6 7.2704z m-78.016 0H126.72c-5.248 0-9.1648-3.1104-9.1648-7.2704 0-4.1472 3.9296-7.2576 9.1648-7.2576h45.76c5.2224 0 9.152 3.1104 9.152 7.2576 0 3.8144-3.9296 7.2704-9.152 7.2704zM80.512 1024H34.752C29.5168 1024 25.6 1020.8896 25.6 1016.7296c0-4.1472 3.9168-7.2576 9.152-7.2576H80.512c5.2352 0 9.152 3.1104 9.152 7.2576 0 3.8144-3.9168 7.2704-9.152 7.2704z m1215.552-36.672H1029.3248c-5.2224 0-9.152-3.1104-9.152-7.2576 0-4.16 3.9296-7.2704 9.152-7.2704h266.2912c5.248 0 9.1648 3.1104 9.1648 7.2704 0.4352 4.1472-3.9296 7.2576-8.7168 7.2576z m38.784 36.672h-40.96c-5.248 0-9.1648-3.1104-9.1648-7.2704 0-4.1472 3.9296-7.2576 9.152-7.2576h40.9728c5.2352 0 9.152 3.1104 9.152 7.2576 0 3.8144-3.9168 7.2704-9.152 7.2704z m-86.7328 0h-45.76c-5.2352 0-9.152-3.1104-9.152-7.2704 0-4.1472 3.9168-7.2576 9.152-7.2576h45.76c5.2352 0 9.152 3.1104 9.152 7.2576 0 3.8144-4.352 7.2704-9.152 7.2704z m-91.9552 0h-45.7728c-5.2224 0-9.152-3.1104-9.152-7.2704 0-4.1472 3.9296-7.2576 9.152-7.2576h45.7728c5.2224 0 9.152 3.1104 9.152 7.2576 0 3.8144-3.9296 7.2704-9.152 7.2704z m-107.648 0H891.5968c-5.248 0-9.1648-3.1104-9.1648-7.2704 0-4.1472 3.9296-7.2576 9.1648-7.2576h156.8896c5.2352 0 9.152 3.1104 9.152 7.2576 0 3.8144-4.352 7.2704-9.152 7.2704z" fill="#F4F7FC" p-id="9813"></path><path d="M294.4 486.4l45.4656 461.6832L704 1024V579.4432L294.4 486.4z" fill="#FFFFFF" p-id="9814"></path><path d="M341.1328 944.2304L294.4 460.8l409.344 108.4544V1024l-362.6112-79.7696z m17.2032-15.424L704 1001.088V573.6192l-388.8768-88.576 43.2128 443.776z" fill="#dbdbdb" p-id="9815"></path><path d="M1075.2 460.8l-371.2 107.4304V998.4l347.2384-76.0576z" fill="#FFFFFF" p-id="9816"></path><path d="M704 1024V574.208L1075.2 460.8l-24.0256 482.56L704 1024z m13.824-444.736v417.92l320.9472-75.392 17.792-435.968-338.7264 93.44z" fill="#dbdbdb" p-id="9817"></path><path d="M1072.8576 482.176L739.2768 573.44 896.768 734.2464l267.5584-85.9136z" fill="#FFFFFF" p-id="9818"></path><path d="M1109.1968 629.632l-210.2144 105.2416 265.344-86.528L1075.2 485.0432l33.9968 144.6016z m-391.36-52.8256v420.3776l320.9344-75.392-289.5232 37.0176-31.4112-382.0032zM1008.6144 460.8l-327.5136-95.6416-351.5904 81.6768 368.7552 99.0848L1008.6144 460.8z" fill="#F5F7FA" p-id="9819"></path><path d="M704 563.7248L294.4 460.8v-18.7136L680.6656 345.6l400.7424 115.2L704 563.7248zM329.5104 446.848l368.7552 99.0848L1008.6144 460.8l-327.5136-95.6416-351.5904 81.6768z" fill="#dbdbdb" p-id="9820"></path><path d="M572.9536 460.8a9.6896 9.6896 0 0 1-9.7536-8.832c0-4.864 3.5456-9.28 8.4224-9.728 16.4096-2.2016 31.488-3.968 45.696-6.6176a9.8176 9.8176 0 0 1 10.624 7.936 9.28 9.28 0 0 1-7.5264 10.176c-14.208 2.2016-30.1568 4.864-46.5664 6.6176l-0.896 0.448z m91.8144-15.9104a9.344 9.344 0 0 1-9.3184-9.2672c0-4.4288 3.0976-7.9616 7.0912-8.832a309.4144 309.4144 0 0 0 43.4688-13.696 9.4464 9.4464 0 0 1 12.416 4.4032c2.2144 4.4288 0 10.1632-4.4288 12.3776-0.448 0-0.448 0-0.896 0.4352a340.48 340.48 0 0 1-45.6832 14.144c-0.8832 0.4352-1.7664 0.4352-2.6496 0.4352z m83.8144-38.8736a9.088 9.088 0 0 1-9.3056-9.28c0-2.2016 0.8832-4.416 2.2144-6.1824 2.2144-2.2144 3.9936-4.864 4.864-7.5136a54.6816 54.6816 0 0 0 5.3376-23.424c0-1.7536 0-3.52-0.448-5.2864-0.448-5.312 3.1104-9.728 8.4224-10.1632 5.3248-0.448 9.7664 3.0848 10.2016 8.3968a69.568 69.568 0 0 1-7.0912 38.4384 56.1152 56.1152 0 0 1-7.9872 11.9168c-0.896 2.2144-3.5456 3.0976-6.208 3.0976z m-5.3248-85.7088a10.7904 10.7904 0 0 1-7.9744-3.968c-4.8768-6.6304-9.3184-13.2608-14.6432-20.3264-3.9936-5.76-8.4224-11.4944-12.416-17.2416a9.088 9.088 0 0 1 2.2144-12.8 9.1648 9.1648 0 0 1 12.864 2.2016c3.9936 5.7472 7.9872 11.4944 12.416 16.7936 5.3248 7.0656 10.6496 14.1312 15.5264 21.1968 2.6624 4.4288 1.7792 10.1632-2.6624 12.8128-1.3312 0.448-3.0976 1.3312-5.3248 1.3312z m-48.7808-79.0784c-3.9936 0-7.9872-2.6496-8.8704-6.6304a98.6112 98.6112 0 0 1-3.5456-25.1904c0-8.832 1.3312-17.2288 3.5456-25.6128a9.28 9.28 0 0 1 11.9808-6.1952c4.864 1.3312 7.5392 6.6304 6.656 11.4944-1.792 6.6304-3.1104 13.696-3.1104 20.7616 0 6.6304 0.8832 13.696 3.0976 20.3264 1.3312 4.864-1.3312 10.1632-6.208 11.4816-1.7664-0.4352-2.6624-0.4352-3.5456-0.4352z m20.8512-87.4752a8.8832 8.8832 0 0 1-8.8704-9.728c0-1.7664 0.4352-3.5328 1.7664-4.864 9.7536-13.248 20.8512-25.6128 33.2672-35.776a9.1648 9.1648 0 0 1 12.864 2.2016 8.7296 8.7296 0 0 1-0.896 11.4944c-11.52 9.7152-21.7216 20.7616-30.1568 32.6912-1.7664 2.6496-4.8768 4.416-7.9744 3.968z m69.632-60.544a9.088 9.088 0 0 1-9.3184-9.2672 8.832 8.832 0 0 1 4.864-7.9488 320.7168 320.7168 0 0 1 43.0336-20.7744c4.864-1.7664 10.2016 0.448 11.968 5.312 1.7792 4.864-0.4352 10.1632-5.312 11.9296a282.0736 282.0736 0 0 0-40.3712 19.4304 8.96 8.96 0 0 1-4.864 1.3312z m86.4768-35.328a9.088 9.088 0 0 1-9.3184-9.28c0-3.968 2.6624-7.9616 6.656-8.832a1003.648 1003.648 0 0 1 46.1184-11.4944c4.8896-0.8832 9.7664 2.2144 11.0976 7.5136 0.8832 4.864-2.2272 9.728-6.656 10.5984-15.5264 3.0976-30.592 7.0656-44.8 11.0464-1.3312 0-2.2144 0.448-3.0976 0.448zM1024 3.0976l-65.1904 54.336L938.8416 0 1024 3.0976z" fill="#DCDFE6" p-id="9821"></path><path d="M302.08 473.6L179.2 681.5488 573.824 793.6 704 578.368z" fill="#FFFFFF" p-id="9822"></path><path d="M581.6192 806.4L166.4 692.6336 307.84 460.8 729.6 569.6896 581.6192 806.4z m-387.5328-124.9664l378.88 103.8464 129.3184-203.8272-386.6624-99.968-121.536 199.936z" fill="#dbdbdb" p-id="9823"></path><path d="M891.648 755.2L704 563.7248 1081.408 460.8 1190.4 659.2512 891.648 755.2zM739.0336 573.3248L896.768 734.2592l267.5584-85.9136-91.4688-166.1696-333.8112 91.1488z" fill="#dbdbdb" p-id="9824"></path></svg>